# xmcd
#
# Track frame offsets: 
#        150
#        19885
#        38967
#        58055
#        76949
#        98653
#        120769
#        142781
#        161882
#        180380
#        196463
#
# Disc length: 2867 seconds
#
# Revision: 2
# Processed by: cddbd v1.5.2PL0 Copyright (c) Steve Scherf et al.
# Submitted via: ExactAudioCopy v0.99pb5
#
DISCID=840b310b
DTITLE=Najee - Rising Sun
DYEAR=2007
DGENRE=Jazz
TTITLE0=Clarity
TTITLE1=Brazillian Affair
TTITLE2=Child At Heart
TTITLE3=Can't Wait Another Minute
TTITLE4=Come What May
TTITLE5=Out Of A Dream
TTITLE6=Moody's Mood For Love
TTITLE7=Still In Love
TTITLE8=Romance The Night
TTITLE9=Smooth Sailing
TTITLE10=Rising Sun
EXTD=YEAR: 2007
EXTT0=
EXTT1=
EXTT2=
EXTT3=
EXTT4=
EXTT5=
EXTT6=
EXTT7=
EXTT8=
EXTT9=
EXTT10=
PLAYORDER=
